<svg width="16" height="16" viewBox="0 0 16 16" fill="none" xmlns="http://www.w3.org/2000/svg">
<path d="M9.58031 0L7.50968 1.19269L7.79403 1.65741L9.07724 0.918157L8.7054 3.22625L8.93507 3.60029L11.0823 2.36279L10.7979 1.89807L9.43814 2.67931L9.80633 0.372274L9.58031 0ZM4.19594 1.19904C2.92568 1.88308 1.86708 2.88293 1.12946 4.09534C0.391833 5.30775 0.00192641 6.68878 0 8.0958C0 10.1921 0.86033 12.2026 2.39173 13.6849C3.92313 15.1672 6.00015 16 8.16587 16C9.93147 15.9991 11.6492 15.4443 13.0616 14.4188C14.474 13.3933 15.505 11.9523 16 10.3118C15.2927 11.0369 14.4401 11.6149 13.4943 12.0105C12.5484 12.406 11.5293 12.6109 10.499 12.6125C8.48795 12.6125 6.55928 11.8392 5.13727 10.4628C3.71526 9.08632 2.91638 7.21946 2.91638 5.27288C2.91766 3.82238 3.36292 2.40477 4.19594 1.19904ZM13.1091 3.03571L12.8576 3.61793L14.4653 4.26721L11.9754 5.534L11.7749 5.99978L14.4616 7.08661L14.7131 6.50438L13.0107 5.81629L15.5006 4.5495L15.7011 4.08372L13.1091 3.03571ZM8.91684 5.29405L5.35156 6.52908L5.64684 7.33008L7.856 6.56436L6.56551 10.0189L6.80246 10.6576L10.499 9.38023L10.2037 8.57923L7.86329 9.39082L9.15379 5.93626L8.91684 5.29405Z" fill="#2B93E2"/>
</svg>
