<svg width="28" height="28" viewBox="0 0 28 28" fill="none" xmlns="http://www.w3.org/2000/svg">
<path d="M14.001 -0.000976562C17.7143 -0.000976563 21.2755 1.47412 23.9012 4.09982C26.5269 6.72552 28.002 10.2867 28.002 14C28.002 17.7133 26.5269 21.2745 23.9012 23.9002C21.2755 26.5259 17.7143 28.001 14.001 28.001C10.2877 28.001 6.72649 26.5259 4.1008 23.9002C1.4751 21.2745 0 17.7133 0 14C0 10.2867 1.4751 6.72552 4.1008 4.09982C6.72649 1.47412 10.2877 -0.000976562 14.001 -0.000976562ZM16.101 8.59502C17.141 8.59502 17.985 7.87302 17.985 6.80302C17.985 5.73302 17.139 5.01102 16.101 5.01102C15.061 5.01102 14.221 5.73302 14.221 6.80302C14.221 7.87302 15.061 8.59502 16.101 8.59502ZM16.467 19.849C16.467 19.635 16.541 19.079 16.499 18.763L14.855 20.655C14.515 21.013 14.089 21.261 13.889 21.195C13.7983 21.1616 13.7224 21.097 13.6751 21.0126C13.6278 20.9283 13.6122 20.8299 13.631 20.735L16.371 12.079C16.595 10.981 15.979 9.97902 14.673 9.85102C13.295 9.85102 11.267 11.249 10.033 13.023C10.033 13.235 9.993 13.763 10.035 14.079L11.677 12.185C12.017 11.831 12.413 11.581 12.613 11.649C12.7115 11.6844 12.7923 11.757 12.8379 11.8512C12.8835 11.9454 12.8904 12.0538 12.857 12.153L10.141 20.767C9.827 21.775 10.421 22.763 11.861 22.987C13.981 22.987 15.233 21.623 16.469 19.849H16.467Z" fill="#2B93E2"/>
</svg>
