<svg width="32" height="32" viewBox="0 0 32 32" fill="none" xmlns="http://www.w3.org/2000/svg">
<path d="M6.66797 18.7453C6.66797 17.3987 6.66797 16.7267 6.96397 16.152C7.25864 15.5787 7.80664 15.1867 8.9013 14.4053L14.452 10.44C15.1986 9.90667 15.5746 9.63867 16.0013 9.63867C16.428 9.63867 16.8026 9.90534 17.5506 10.44L23.1013 14.404C24.196 15.1867 24.744 15.5773 25.0386 16.152C25.3333 16.7267 25.3346 17.3987 25.3346 18.744V25.3333C25.3346 26.5907 25.3346 27.2187 24.944 27.6093C24.5533 28 23.9253 28 22.668 28H9.33464C8.0773 28 7.4493 28 7.05864 27.6093C6.66797 27.2187 6.66797 26.5907 6.66797 25.3333V18.7453Z" fill="#2B93E2" fill-opacity="0.25"/>
<path d="M4 16.5161C4 16.8708 4 17.0495 4.112 17.1041C4.224 17.1588 4.36533 17.0508 4.64533 16.8308L14.3627 9.27345C15.1493 8.66145 15.5427 8.35612 16 8.35612C16.4573 8.35612 16.8507 8.66279 17.6373 9.27345L27.3547 16.8308C27.6347 17.0495 27.776 17.1588 27.888 17.1041C28 17.0495 28 16.8708 28 16.5161V15.9708C28 15.3308 28 15.0108 27.864 14.7335C27.728 14.4561 27.476 14.2588 26.9707 13.8668L17.6373 6.60679C16.8507 5.99479 16.4573 5.68945 16 5.68945C15.5427 5.68945 15.1493 5.99612 14.3627 6.60679L5.02933 13.8668C4.524 14.2588 4.27067 14.4561 4.136 14.7335C4.00133 15.0108 4 15.3308 4 15.9708V16.5161ZM16.6667 20.0001H15.3333C14.6261 20.0001 13.9478 20.2811 13.4477 20.7812C12.9476 21.2813 12.6667 21.9595 12.6667 22.6668V27.8001C12.6667 27.9108 12.756 28.0001 12.8667 28.0001H19.1333C19.1864 28.0001 19.2372 27.979 19.2748 27.9415C19.3123 27.904 19.3333 27.8532 19.3333 27.8001V22.6668C19.3333 21.9595 19.0524 21.2813 18.5523 20.7812C18.0522 20.2811 17.3739 20.0001 16.6667 20.0001Z" fill="#2B93E2"/>
<path d="M23.332 6.6665H21.9987C21.6305 6.6665 21.332 6.96498 21.332 7.33317V11.3332C21.332 11.7014 21.6305 11.9998 21.9987 11.9998H23.332C23.7002 11.9998 23.9987 11.7014 23.9987 11.3332V7.33317C23.9987 6.96498 23.7002 6.6665 23.332 6.6665Z" fill="#2B93E2"/>
</svg>
