<svg width="25" height="24" viewBox="0 0 25 24" fill="none" xmlns="http://www.w3.org/2000/svg">
<path d="M20.6297 21C18.5464 21 16.488 20.546 14.4547 19.638C12.4214 18.73 10.5714 17.4423 8.90469 15.775C7.23802 14.1077 5.95069 12.2577 5.04269 10.225C4.13469 8.19233 3.68035 6.134 3.67969 4.05C3.67969 3.75 3.77969 3.5 3.97969 3.3C4.17969 3.1 4.42969 3 4.72969 3H8.77969C9.01302 3 9.22135 3.07933 9.40469 3.238C9.58802 3.39667 9.69635 3.584 9.72969 3.8L10.3797 7.3C10.413 7.56667 10.4047 7.79167 10.3547 7.975C10.3047 8.15833 10.213 8.31667 10.0797 8.45L7.65469 10.9C7.98802 11.5167 8.38369 12.1123 8.84169 12.687C9.29969 13.2617 9.80402 13.816 10.3547 14.35C10.8714 14.8667 11.413 15.346 11.9797 15.788C12.5464 16.23 13.1464 16.634 13.7797 17L16.1297 14.65C16.2797 14.5 16.4757 14.3877 16.7177 14.313C16.9597 14.2383 17.197 14.2173 17.4297 14.25L20.8797 14.95C21.113 15.0167 21.3047 15.1377 21.4547 15.313C21.6047 15.4883 21.6797 15.684 21.6797 15.9V19.95C21.6797 20.25 21.5797 20.5 21.3797 20.7C21.1797 20.9 20.9297 21 20.6297 21Z" fill="#FAFAFA"/>
</svg>
